<svg width="100" height="100" viewBox="0 0 100 100" fill="none" xmlns="http://www.w3.org/2000/svg">
<path fill-rule="evenodd" clip-rule="evenodd" d="M88.3635 82.4713L17.5301 11.6379L11.6375 17.5305L24.5582 30.451C21.9403 34.0143 20.3012 38.3415 20.0379 43.036C13.174 45.8211 8.33362 52.554 8.33362 60.4172C8.33362 70.7727 16.7282 79.1672 27.0836 79.1672H44.594V79.1678H68.1307C69.7328 79.1678 71.2975 79.0077 72.8098 78.7028L82.4709 88.3639L88.3635 82.4713ZM38.9303 21.2856L87.1424 69.509C89.9875 65.618 91.667 60.8208 91.667 55.6313C91.667 42.6327 81.1295 32.095 68.1307 32.095C66.6731 32.095 65.2465 32.2274 63.8621 32.4811C59.7744 25.5127 52.2047 20.834 43.542 20.834C41.9637 20.834 40.4217 20.9893 38.9303 21.2856Z" fill="#D61010"/>
</svg>
