<svg width="75" height="64" viewBox="0 0 75 64" fill="none" xmlns="http://www.w3.org/2000/svg">
<path d="M62.0828 12.3113V51.901C62.0828 52.276 61.9106 52.6356 61.604 52.9008C61.2975 53.1659 60.8817 53.3149 60.4482 53.3149H14.6795C14.246 53.3149 13.8302 53.1659 13.5237 52.9008C13.2171 52.6356 13.0449 52.276 13.0449 51.901V12.3113C13.0449 11.9363 13.2171 11.5767 13.5237 11.3115C13.8302 11.0464 14.246 10.8974 14.6795 10.8974H60.4482C60.8817 10.8974 61.2975 11.0464 61.604 11.3115C61.9106 11.5767 62.0828 11.9363 62.0828 12.3113ZM29.3909 10.8974V53.3149V10.8974ZM13.0449 25.0366H62.0828H13.0449ZM13.0449 39.1757H62.0828H13.0449ZM45.7368 10.8974V53.3149V10.8974Z" fill="black"/>
<path d="M29.3909 10.8974V53.3149M13.0449 25.0366H62.0828M13.0449 39.1757H62.0828M45.7368 10.8974V53.3149M62.0828 12.3113V51.901C62.0828 52.276 61.9106 52.6356 61.604 52.9008C61.2975 53.1659 60.8817 53.3149 60.4482 53.3149H14.6795C14.246 53.3149 13.8302 53.1659 13.5237 52.9008C13.2171 52.6356 13.0449 52.276 13.0449 51.901V12.3113C13.0449 11.9363 13.2171 11.5767 13.5237 11.3115C13.8302 11.0464 14.246 10.8974 14.6795 10.8974H60.4482C60.8817 10.8974 61.2975 11.0464 61.604 11.3115C61.9106 11.5767 62.0828 11.9363 62.0828 12.3113Z" stroke="black" stroke-width="2.5" stroke-linecap="round" stroke-linejoin="round"/>
<path d="M18.5208 57.5822L6.58834 19.333C6.47532 18.9707 6.53956 18.5836 6.76693 18.2569C6.99431 17.9301 7.3662 17.6905 7.80078 17.5907L53.6814 7.0543C54.1159 6.9545 54.5776 7.0027 54.9648 7.18832C55.3521 7.37393 55.6331 7.68174 55.7461 8.04404L67.6786 46.2932C67.7916 46.6555 67.7274 47.0426 67.5 47.3694C67.2726 47.6961 66.9007 47.9357 66.4661 48.0355L20.5856 58.5719C20.151 58.6717 19.6893 58.6235 19.3021 58.4379C18.9149 58.2523 18.6338 57.9445 18.5208 57.5822ZM51.7188 51.4222L38.934 10.441L51.7188 51.4222ZM63.8431 33.9988L14.6854 45.2878L63.8431 33.9988ZM59.5815 20.3384L10.4238 31.6274L59.5815 20.3384ZM35.3329 55.1852L22.5481 14.204L35.3329 55.1852Z" fill="black"/>
<path d="M51.7188 51.4222L38.934 10.441M63.8431 33.9988L14.6854 45.2878M59.5815 20.3384L10.4238 31.6274M35.3329 55.1852L22.5481 14.204M18.5208 57.5822L6.58834 19.333C6.47532 18.9707 6.53956 18.5836 6.76694 18.2569C6.99431 17.9301 7.3662 17.6905 7.80078 17.5907L53.6814 7.0543C54.1159 6.95449 54.5776 7.0027 54.9648 7.18831C55.3521 7.37393 55.6331 7.68174 55.7461 8.04404L67.6786 46.2932C67.7916 46.6555 67.7274 47.0426 67.5 47.3694C67.2726 47.6961 66.9007 47.9357 66.4661 48.0355L20.5856 58.5719C20.151 58.6717 19.6893 58.6235 19.3021 58.4379C18.9149 58.2523 18.6338 57.9445 18.5208 57.5822Z" stroke="black" stroke-width="2.5" stroke-linecap="round" stroke-linejoin="round"/>
<path d="M36.2836 61.4623L2.21691 32.7683C1.89423 32.4965 1.71295 32.1279 1.71294 31.7435C1.71295 31.3592 1.89423 30.9905 2.21691 30.7187L36.2836 2.02478C36.6063 1.75299 37.0439 1.6003 37.5002 1.6003C37.9566 1.6003 38.3942 1.75299 38.7169 2.02478L72.7836 30.7187C73.1063 30.9905 73.2875 31.3592 73.2875 31.7435C73.2875 32.1279 73.1063 32.4965 72.7836 32.7683L38.7169 61.4623C38.3942 61.7341 37.9566 61.8868 37.5002 61.8868C37.0439 61.8868 36.6063 61.7341 36.2836 61.4623ZM61.8336 41.9914L25.3336 11.2478L61.8336 41.9914ZM61.8336 21.4957L25.3336 52.2392L61.8336 21.4957ZM49.6669 11.2478L13.1669 41.9914L49.6669 11.2478ZM49.6669 52.2392L13.1669 21.4957L49.6669 52.2392Z" fill="white"/>
<path d="M61.8336 41.9914L25.3336 11.2478M61.8336 21.4957L25.3336 52.2392M49.6669 11.2478L13.1669 41.9914M49.6669 52.2392L13.1669 21.4957M36.2836 61.4623L2.21691 32.7683C1.89423 32.4965 1.71295 32.1279 1.71295 31.7435C1.71295 31.3592 1.89423 30.9905 2.21691 30.7187L36.2836 2.02478C36.6063 1.75299 37.0439 1.6003 37.5002 1.6003C37.9566 1.6003 38.3942 1.75299 38.7169 2.02478L72.7836 30.7187C73.1063 30.9905 73.2875 31.3592 73.2875 31.7435C73.2875 32.1279 73.1063 32.4965 72.7836 32.7683L38.7169 61.4623C38.3942 61.7341 37.9566 61.8868 37.5002 61.8868C37.0439 61.8868 36.6063 61.7341 36.2836 61.4623Z" stroke="black" stroke-width="2.5" stroke-linecap="round" stroke-linejoin="round"/>
</svg>
