<svg width="124" height="98" viewBox="0 0 124 98" fill="none" xmlns="http://www.w3.org/2000/svg">
<g clip-path="url(#clip0_17_23)">
<path d="M19.125 42.875C25.8816 42.875 31.375 37.3816 31.375 30.625C31.375 23.8684 25.8816 18.375 19.125 18.375C12.3684 18.375 6.875 23.8684 6.875 30.625C6.875 37.3816 12.3684 42.875 19.125 42.875ZM104.875 42.875C111.632 42.875 117.125 37.3816 117.125 30.625C117.125 23.8684 111.632 18.375 104.875 18.375C98.1184 18.375 92.625 23.8684 92.625 30.625C92.625 37.3816 98.1184 42.875 104.875 42.875ZM111 49H98.75C95.3812 49 92.3379 50.359 90.1176 52.5602C97.8312 56.7902 103.305 64.4273 104.492 73.5H117.125C120.513 73.5 123.25 70.7629 123.25 67.375V61.25C123.25 54.4934 117.757 49 111 49ZM62 49C73.848 49 83.4375 39.4105 83.4375 27.5625C83.4375 15.7145 73.848 6.125 62 6.125C50.152 6.125 40.5625 15.7145 40.5625 27.5625C40.5625 39.4105 50.152 49 62 49ZM76.7 55.125H75.1113C71.1301 57.0391 66.7086 58.1875 62 58.1875C57.2914 58.1875 52.8891 57.0391 48.8887 55.125H47.3C35.1266 55.125 25.25 65.0016 25.25 77.175V82.6875C25.25 87.7598 29.3652 91.875 34.4375 91.875H89.5625C94.6348 91.875 98.75 87.7598 98.75 82.6875V77.175C98.75 65.0016 88.8734 55.125 76.7 55.125ZM33.8824 52.5602C31.6621 50.359 28.6187 49 25.25 49H13C6.24336 49 0.75 54.4934 0.75 61.25V67.375C0.75 70.7629 3.48711 73.5 6.875 73.5H19.4887C20.6945 64.4273 26.1688 56.7902 33.8824 52.5602Z" fill="#002338"/>
</g>
<defs>
<clipPath id="clip0_17_23">
<rect width="122.5" height="98" fill="white" transform="translate(0.75)"/>
</clipPath>
</defs>
</svg>
