<svg width="84" height="85" viewBox="0 0 84 85" fill="none" xmlns="http://www.w3.org/2000/svg">
<path d="M54.6 50.5907C60.1695 50.5907 65.511 52.8032 69.4492 56.7414C73.3875 60.6797 75.6 66.0211 75.6 71.5907V75.7907C75.6 78.0185 74.715 80.1551 73.1397 81.7304C71.5644 83.3057 69.4278 84.1907 67.2 84.1907H8.4C6.17218 84.1907 4.03561 83.3057 2.4603 81.7304C0.884997 80.1551 0 78.0185 0 75.7907L0 71.5907C0 66.0211 2.21249 60.6797 6.15076 56.7414C10.089 52.8032 15.4305 50.5907 21 50.5907H54.6ZM71.4 25.3907C72.5139 25.3907 73.5822 25.8332 74.3699 26.6208C75.1575 27.4085 75.6 28.4768 75.6 29.5907V33.7907H79.8C80.9139 33.7907 81.9822 34.2332 82.7699 35.0208C83.5575 35.8085 84 36.8768 84 37.9907C84 39.1046 83.5575 40.1729 82.7699 40.9605C81.9822 41.7482 80.9139 42.1907 79.8 42.1907H75.6V46.3907C75.6 47.5046 75.1575 48.5729 74.3699 49.3605C73.5822 50.1482 72.5139 50.5907 71.4 50.5907C70.2861 50.5907 69.2178 50.1482 68.4301 49.3605C67.6425 48.5729 67.2 47.5046 67.2 46.3907V42.1907L63 42.1907C61.8861 42.1907 60.8178 41.7482 60.0301 40.9605C59.2425 40.1729 58.8 39.1046 58.8 37.9907C58.8 36.8768 59.2425 35.8085 60.0301 35.0208C60.8178 34.2332 61.8861 33.7907 63 33.7907L67.2 33.7907V29.5907C67.2 28.4768 67.6425 27.4085 68.4301 26.6208C69.2178 25.8332 70.2861 25.3907 71.4 25.3907ZM37.8 0.190674C43.3695 0.190674 48.711 2.40317 52.6492 6.34143C56.5875 10.2797 58.8 15.6211 58.8 21.1907C58.8 26.7602 56.5875 32.1017 52.6492 36.0399C48.711 39.9782 43.3695 42.1907 37.8 42.1907C32.2305 42.1907 26.889 39.9782 22.9508 36.0399C19.0125 32.1017 16.8 26.7602 16.8 21.1907C16.8 15.6211 19.0125 10.2797 22.9508 6.34143C26.889 2.40317 32.2305 0.190674 37.8 0.190674Z" fill="#002338"/>
</svg>
