<svg width="86" height="30" viewBox="0 0 86 30" fill="none" xmlns="http://www.w3.org/2000/svg">
<path d="M3 20.46V23.5C3 23.78 3.22 24 3.5 24H6.54C6.67 24 6.8 23.95 6.89 23.85L17.81 12.94L14.06 9.19L3.15 20.1C3.05 20.2 3 20.32 3 20.46ZM20.71 10.04C20.8027 9.94749 20.8762 9.8376 20.9264 9.71663C20.9766 9.59565 21.0024 9.46597 21.0024 9.335C21.0024 9.20403 20.9766 9.07435 20.9264 8.95338C20.8762 8.83241 20.8027 8.72252 20.71 8.63L18.37 6.29C18.2775 6.1973 18.1676 6.12375 18.0466 6.07357C17.9257 6.02339 17.796 5.99756 17.665 5.99756C17.534 5.99756 17.4043 6.02339 17.2834 6.07357C17.1624 6.12375 17.0525 6.1973 16.96 6.29L15.13 8.12L18.88 11.87L20.71 10.04Z" fill="#002338"/>
<path d="M31.78 9.94V14.02H36.58V15.88H31.78V20.14H37.18V22H29.5V8.08H37.18V9.94H31.78ZM39.2283 16.44C39.2283 15.3333 39.4549 14.3533 39.9083 13.5C40.3749 12.6467 41.0016 11.9867 41.7883 11.52C42.5883 11.04 43.4749 10.8 44.4483 10.8C45.1683 10.8 45.8749 10.96 46.5683 11.28C47.2749 11.5867 47.8349 12 48.2483 12.52V7.2H50.5483V22H48.2483V20.34C47.8749 20.8733 47.3549 21.3133 46.6883 21.66C46.0349 22.0067 45.2816 22.18 44.4283 22.18C43.4683 22.18 42.5883 21.94 41.7883 21.46C41.0016 20.9667 40.3749 20.2867 39.9083 19.42C39.4549 18.54 39.2283 17.5467 39.2283 16.44ZM48.2483 16.48C48.2483 15.72 48.0883 15.06 47.7683 14.5C47.4616 13.94 47.0549 13.5133 46.5483 13.22C46.0416 12.9267 45.4949 12.78 44.9083 12.78C44.3216 12.78 43.7749 12.9267 43.2683 13.22C42.7616 13.5 42.3483 13.92 42.0283 14.48C41.7216 15.0267 41.5683 15.68 41.5683 16.44C41.5683 17.2 41.7216 17.8667 42.0283 18.44C42.3483 19.0133 42.7616 19.4533 43.2683 19.76C43.7883 20.0533 44.3349 20.2 44.9083 20.2C45.4949 20.2 46.0416 20.0533 46.5483 19.76C47.0549 19.4667 47.4616 19.04 47.7683 18.48C48.0883 17.9067 48.2483 17.24 48.2483 16.48ZM54.703 9.52C54.2896 9.52 53.943 9.38 53.663 9.1C53.383 8.82 53.243 8.47333 53.243 8.06C53.243 7.64667 53.383 7.3 53.663 7.02C53.943 6.74 54.2896 6.6 54.703 6.6C55.103 6.6 55.443 6.74 55.723 7.02C56.003 7.3 56.143 7.64667 56.143 8.06C56.143 8.47333 56.003 8.82 55.723 9.1C55.443 9.38 55.103 9.52 54.703 9.52ZM55.823 10.98V22H53.543V10.98H55.823ZM61.4764 12.84V18.94C61.4764 19.3533 61.5697 19.6533 61.7564 19.84C61.9564 20.0133 62.2897 20.1 62.7564 20.1H64.1564V22H62.3564C61.3297 22 60.5431 21.76 59.9964 21.28C59.4497 20.8 59.1764 20.02 59.1764 18.94V12.84H57.8764V10.98H59.1764V8.24H61.4764V10.98H64.1564V12.84H61.4764ZM65.4978 16.44C65.4978 15.3333 65.7245 14.3533 66.1778 13.5C66.6445 12.6467 67.2711 11.9867 68.0578 11.52C68.8578 11.04 69.7378 10.8 70.6978 10.8C71.5645 10.8 72.3178 10.9733 72.9578 11.32C73.6111 11.6533 74.1311 12.0733 74.5178 12.58V10.98H76.8178V22H74.5178V20.36C74.1311 20.88 73.6045 21.3133 72.9378 21.66C72.2711 22.0067 71.5111 22.18 70.6578 22.18C69.7111 22.18 68.8445 21.94 68.0578 21.46C67.2711 20.9667 66.6445 20.2867 66.1778 19.42C65.7245 18.54 65.4978 17.5467 65.4978 16.44ZM74.5178 16.48C74.5178 15.72 74.3578 15.06 74.0378 14.5C73.7311 13.94 73.3245 13.5133 72.8178 13.22C72.3111 12.9267 71.7645 12.78 71.1778 12.78C70.5911 12.78 70.0445 12.9267 69.5378 13.22C69.0311 13.5 68.6178 13.92 68.2978 14.48C67.9911 15.0267 67.8378 15.68 67.8378 16.44C67.8378 17.2 67.9911 17.8667 68.2978 18.44C68.6178 19.0133 69.0311 19.4533 69.5378 19.76C70.0578 20.0533 70.6045 20.2 71.1778 20.2C71.7645 20.2 72.3111 20.0533 72.8178 19.76C73.3245 19.4667 73.7311 19.04 74.0378 18.48C74.3578 17.9067 74.5178 17.24 74.5178 16.48ZM82.0925 12.58C82.4258 12.02 82.8658 11.5867 83.4125 11.28C83.9725 10.96 84.6325 10.8 85.3925 10.8V13.16H84.8125C83.9192 13.16 83.2392 13.3867 82.7725 13.84C82.3192 14.2933 82.0925 15.08 82.0925 16.2V22H79.8125V10.98H82.0925V12.58Z" fill="#002338"/>
</svg>
