<svg width="76" height="88" viewBox="0 0 76 88" fill="none" xmlns="http://www.w3.org/2000/svg">
<path d="M75.7286 57.719L70.3816 32.3523C69.3489 26.8181 65.372 23.5146 59.7443 23.5146L16.9679 23.5146C14.1607 23.5146 11.788 24.2983 9.9332 25.844C8.07844 27.3896 6.86366 29.5718 6.32728 32.3423L0.980239 57.719C0.944169 57.9006 0.926257 58.0853 0.926768 58.2704L0.926768 76.9851C0.926768 79.8214 2.05346 82.5414 4.059 84.547C6.06453 86.5525 8.78461 87.6792 11.6209 87.6792H65.0913C67.9276 87.6792 70.6477 86.5525 72.6532 84.547C74.6587 82.5414 75.7854 79.8214 75.7854 76.9851V58.2704C75.7848 58.0852 75.7658 57.9005 75.7286 57.719ZM11.564 33.4234V33.3766C12.1572 30.297 13.8716 28.865 16.9596 28.865L59.7443 28.865C62.8539 28.865 64.5683 30.2937 65.1364 33.3616C65.1364 33.3833 65.1448 33.405 65.1481 33.4267L69.648 54.7949C69.6684 54.8922 69.6668 54.9929 69.6433 55.0896C69.6199 55.1862 69.5751 55.2764 69.5124 55.3536C69.4496 55.4308 69.3704 55.493 69.2806 55.5356C69.1907 55.5783 69.0925 55.6004 68.993 55.6003L49.0502 55.6003C48.3452 55.5967 47.6677 55.8731 47.1664 56.3688C46.6651 56.8644 46.3811 57.5388 46.3767 58.2437C46.3767 60.3709 45.5316 62.411 44.0275 63.9151C42.5233 65.4193 40.4833 66.2643 38.3561 66.2643C36.2289 66.2643 34.1888 65.4193 32.6847 63.9151C31.1805 62.411 30.3355 60.3709 30.3355 58.2437C30.3338 57.8944 30.2632 57.5488 30.1279 57.2267C29.9926 56.9046 29.7952 56.6124 29.5469 56.3666C29.2987 56.1208 29.0044 55.9264 28.681 55.7943C28.3576 55.6622 28.0113 55.5952 27.662 55.5969H7.71919C7.61972 55.597 7.52148 55.575 7.43162 55.5323C7.34177 55.4896 7.26258 55.4274 7.19982 55.3503C7.13706 55.2731 7.09231 55.1829 7.06885 55.0862C7.04538 54.9896 7.04378 54.8889 7.06418 54.7915L11.564 33.4234Z" fill="#002338"/>
<path d="M14.7217 1.01355C16.9942 0.203171 19.45 0.0543312 21.8038 0.584334C24.1575 1.11434 26.3125 2.30142 28.0183 4.00762C29.7241 5.71382 30.9107 7.86908 31.4402 10.2229C31.9697 12.5768 31.8203 15.0326 31.0094 17.3049L70.5085 56.8039L62.7798 64.5326L23.2808 25.0335C21.0079 25.8443 18.5516 25.9934 16.1973 25.4633C13.8431 24.9332 11.6877 23.7457 9.98171 22.039C8.27572 20.3322 7.08922 18.1763 6.56018 15.8218C6.03113 13.4673 6.18126 11.0111 6.99311 8.73854L15.1369 16.886C16.1673 17.8812 17.5473 18.4319 18.9798 18.4194C20.4122 18.407 21.7825 17.8324 22.7954 16.8195C23.8083 15.8065 24.3829 14.4363 24.3953 13.0039C24.4078 11.5714 23.8571 10.1914 22.8619 9.16103L14.7217 1.01355ZM52.4799 7.87171L64.0692 1.4324L69.2192 6.58604L62.7798 18.1753L56.3405 19.461L48.6192 27.186L43.4655 22.036L51.1905 14.311L52.4799 7.87171ZM26.7263 36.2003L34.4512 43.9289L16.4226 61.9576C15.4285 62.9424 14.0943 63.5082 12.6952 63.5383C11.2961 63.5684 9.93883 63.0605 8.90325 62.1192C7.86767 61.178 7.23276 59.8753 7.12944 58.4797C7.02613 57.0841 7.46229 55.7021 8.34799 54.6186L8.70128 54.2289L26.7263 36.2003Z" fill="#002338"/>
</svg>
