<svg width="599" height="134" viewBox="0 0 599 134" fill="none" xmlns="http://www.w3.org/2000/svg">
<path d="M59.1221 4.2041C28.6876 4.2041 4.01587 28.1249 4.01587 57.6319C4.01587 77.5722 15.2858 94.9599 31.9852 104.139C32.5072 118.238 44.4516 129.514 59.1221 129.514C73.7905 129.514 85.7349 118.238 86.2564 104.139C102.956 94.9599 114.226 77.5722 114.226 57.6319C114.226 28.1249 89.554 4.2041 59.1221 4.2041ZM85.8097 58.0752L74.507 92.4078C73.8346 94.4502 71.6326 95.563 69.5902 94.8881C67.5478 94.2157 66.4363 92.0149 67.1108 89.9713L74.728 66.8263L61.3615 76.2488C60.0147 77.1973 58.219 77.1973 56.8746 76.2488L43.5081 66.8275L51.1258 89.9746C51.8003 92.0183 50.6883 94.2195 48.6464 94.8914C48.2421 95.0238 47.8307 95.0877 47.4264 95.0877C45.7905 95.0877 44.2675 94.0489 43.7292 92.4095L32.4286 58.0773C31.9024 56.4813 32.4592 54.7293 33.8082 53.7291C35.1597 52.7294 36.9978 52.708 38.3703 53.6762L59.1166 68.3L79.8654 53.6737C81.2379 52.7067 83.0761 52.7264 84.4271 53.7279C85.7769 54.7268 86.3342 56.4792 85.8097 58.0752Z" fill="url(#paint0_radial_1009_8)"/>
<path d="M148.549 38.5745H156.911L176.4 67.9596H176.706L196.195 38.5745H204.557V95.1187H193.586V73.1004L193.816 59.2132H193.508L177.779 83.687H175.326L159.597 59.2132H159.29L159.597 73.1004V95.1191H148.549V38.5745Z" fill="#002338"/>
<path d="M214.993 47.8761C213.956 47.2756 213.145 46.4565 212.555 45.4202C211.968 44.3848 211.674 43.2531 211.674 42.0251C211.674 40.798 211.968 39.6722 212.555 38.6502C213.145 37.6277 213.956 36.8213 214.993 36.233C216.027 35.6455 217.172 35.3513 218.424 35.3513C219.654 35.3513 220.779 35.6451 221.802 36.233C222.824 36.8217 223.63 37.6277 224.218 38.6502C224.805 39.6726 225.102 40.798 225.102 42.0251C225.102 43.2531 224.805 44.3848 224.218 45.4202C223.63 46.4565 222.824 47.276 221.802 47.8761C220.779 48.4762 219.654 48.7775 218.424 48.7775C217.172 48.7775 216.027 48.4766 214.993 47.8761ZM213.094 53.9939H223.682V95.1176H213.094V53.9939Z" fill="#002338"/>
<path d="M231.21 53.9951H241.49V59.2893H241.72C243.025 57.3974 244.775 55.9387 246.975 54.9163C249.175 53.8939 251.591 53.3816 254.226 53.3816C257.089 53.3816 259.552 54.0397 261.611 55.3571C263.67 56.6746 265.228 58.4644 266.291 60.7278C267.353 62.9912 267.884 65.5294 267.884 68.3425V95.1188H257.296V70.645C257.296 67.9596 256.638 65.9068 255.319 64.4872C254.003 63.0677 252.179 62.3591 249.852 62.3591C248.318 62.3591 246.943 62.6848 245.73 63.337C244.515 63.9892 243.556 64.9423 242.853 66.1951C242.148 67.4486 241.798 68.9569 241.798 70.7214V95.1192H231.209L231.21 53.9951Z" fill="#002338"/>
<path d="M307.294 92.8185C305.912 91.7432 305.017 90.5161 304.608 89.1356H304.263C302.6 91.2073 300.631 92.8244 298.356 93.9876C296.078 95.1513 293.622 95.7325 290.99 95.7325C287.869 95.7325 284.914 94.9147 282.129 93.2774C279.342 91.6415 277.097 89.2301 275.396 86.0468C273.694 82.8623 272.857 79.0595 272.883 74.6348C272.857 70.2106 273.694 66.3936 275.396 63.183C277.097 59.9744 279.353 57.5316 282.167 55.8565C284.98 54.181 287.998 53.3313 291.22 53.3053C293.443 53.3053 295.523 53.6957 297.453 54.4748C299.385 55.2552 301.129 56.3738 302.69 57.8321H302.958V36.0427H313.546V81.6927C313.572 82.7412 313.687 83.5725 313.891 84.1869C314.096 84.8004 314.427 85.2988 314.888 85.6829C315.349 86.0662 316.002 86.4246 316.846 86.7575L313.085 95.7329C310.606 94.8643 308.674 93.891 307.294 92.8185ZM298.586 85.1832C300.119 84.1352 301.322 82.6849 302.192 80.8296C303.061 78.9763 303.496 76.86 303.496 74.4815C303.496 72.0008 303.068 69.8395 302.21 67.998C301.352 66.1565 300.163 64.7509 298.642 63.778C297.121 62.8073 295.413 62.3336 293.521 62.3597C291.525 62.3597 289.756 62.8518 288.209 63.8356C286.66 64.8206 285.459 66.233 284.601 68.0745C283.746 69.916 283.318 72.0525 283.318 74.4815C283.318 76.86 283.739 78.9763 284.582 80.8296C285.426 82.6849 286.615 84.1352 288.15 85.1832C289.685 86.2326 291.424 86.757 293.368 86.757C295.312 86.757 297.052 86.2326 298.586 85.1832Z" fill="#002338"/>
<path d="M317.865 53.9951H325V48.9313C325 46.1695 325.525 43.7535 326.573 41.6817C327.624 39.61 329.208 37.9988 331.33 36.8482C333.452 35.6967 336.075 35.1218 339.197 35.1218C340.524 35.1218 341.881 35.2244 343.263 35.4286C344.642 35.6328 345.869 35.9396 346.944 36.3485L343.416 45.0188C342.264 44.5583 341.216 44.328 340.268 44.328C338.837 44.328 337.674 44.7697 336.778 45.6513C335.883 46.5338 335.436 47.8323 335.436 49.5457V53.9947H345.564V62.5877H335.436V95.1183H325V62.5877H317.865V53.9951Z" fill="#002338"/>
<path d="M404.117 92.7789C400.805 90.913 398.192 88.3614 396.271 85.1251C394.354 81.8914 393.395 78.316 393.395 74.404C393.395 70.4907 394.353 66.9301 396.271 63.719C398.192 60.5109 400.78 57.9845 404.039 56.143C407.301 54.3015 410.862 53.3816 414.724 53.3816C417.025 53.3816 419.288 53.7211 421.514 54.3977C423.739 55.076 425.721 56.0161 427.46 57.2171L423.547 65.8101C422.421 64.8133 421.105 64.0401 419.596 63.49C418.087 62.9399 416.515 62.6651 414.877 62.6651C412.68 62.6651 410.721 63.1824 409.008 64.2187C407.295 65.2542 405.965 66.6607 405.02 68.4387C404.072 70.2155 403.6 72.2036 403.6 74.4036C403.6 76.6035 404.084 78.6106 405.057 80.4264C406.028 82.2414 407.377 83.6732 409.105 84.7225C410.83 85.771 412.755 86.295 414.877 86.295C416.616 86.295 418.306 86.0068 419.942 85.4327C421.578 84.8566 422.833 84.1464 423.7 83.3034L427.538 92.0498C425.952 93.0983 424.071 93.9488 421.897 94.5998C419.723 95.252 417.434 95.5785 415.032 95.5785C411.067 95.5794 407.428 94.646 404.117 92.7789Z" fill="#002338"/>
<path d="M442.553 93.9864C440.429 92.8232 438.838 91.1935 437.775 89.0953C436.715 86.9987 436.184 84.5815 436.184 81.8445V62.5871H429.434V53.9941H436.184V41.7185H446.772V53.9941H456.439V62.5871H446.772V81.231C446.772 82.996 447.2 84.3063 448.058 85.1631C448.914 86.0208 450.02 86.4486 451.377 86.4486C452.526 86.4486 453.574 86.194 454.521 85.6813L457.974 94.044C455.877 95.1686 453.318 95.7313 450.3 95.7313C447.259 95.7313 444.676 95.1497 442.553 93.9864Z" fill="#002338"/>
<path d="M468.55 93.0092C465.341 91.1942 462.815 88.6744 460.975 85.452C459.134 82.2297 458.213 78.5727 458.213 74.4809C458.213 70.4151 459.134 66.7834 460.975 63.5858C462.815 60.3895 465.342 57.8899 468.55 56.0858C471.76 54.283 475.321 53.3816 479.234 53.3816C483.197 53.3816 486.779 54.2771 489.976 56.0669C493.171 57.858 495.684 60.3575 497.513 63.5669C499.342 66.7763 500.256 70.4151 500.256 74.4809C500.256 78.5727 499.341 82.2368 497.513 85.471C495.684 88.7072 493.165 91.2253 489.957 93.0285C486.746 94.8309 483.172 95.7323 479.235 95.7323C475.321 95.7319 471.76 94.825 468.55 93.0092ZM484.779 85.0297C486.426 84.0321 487.719 82.6125 488.652 80.771C489.585 78.9308 490.052 76.8325 490.052 74.4801C490.052 72.178 489.597 70.1264 488.69 68.3236C487.783 66.5195 486.516 65.1138 484.892 64.1035C483.268 63.0941 481.408 62.5877 479.312 62.5877C477.239 62.5877 475.38 63.087 473.73 64.0846C472.08 65.081 470.782 66.4821 469.835 68.2849C468.888 70.0873 468.416 72.1532 468.416 74.4801C468.416 76.8325 468.883 78.9308 469.816 80.771C470.75 82.6125 472.042 84.0321 473.69 85.0297C475.34 86.0273 477.19 86.5262 479.234 86.5262C481.279 86.5262 483.129 86.0273 484.779 85.0297Z" fill="#002338"/>
<path d="M505.453 53.9947H515.81V59.9024H516.041C517.42 58.0105 519.16 56.4569 521.256 55.242C523.355 54.0279 525.757 53.4072 528.469 53.3816C529.414 53.4072 530.31 53.4967 531.154 53.6505C532 53.8035 532.613 53.9703 532.996 54.1489L528.699 64.2767C528.444 64.1489 528.002 64.0279 527.377 63.9123C526.749 63.7972 526.091 63.7396 525.4 63.7396C523.943 63.7396 522.498 64.104 521.066 64.8327C519.632 65.5609 518.439 66.6552 517.479 68.1122C516.521 69.5708 516.041 71.3102 516.041 73.3303V95.1188H505.453V53.9947H505.453Z" fill="#002338"/>
<path d="M540.156 111.421C538.622 111.141 537.357 110.796 536.359 110.386L540.119 101.717C540.758 102.048 541.468 102.312 542.248 102.503C543.026 102.695 543.75 102.791 544.415 102.791C547.33 102.791 549.351 101.052 550.477 97.5737L551.127 95.4637L534.134 53.9946H545.336L553.621 77.4725L555.922 84.1471H556.23L558.226 77.4725L565.897 53.9946H576.946L559.53 100.028C558.686 102.228 557.788 104.127 556.844 105.725C555.896 107.324 554.427 108.742 552.432 109.985C550.437 111.224 547.842 111.845 544.645 111.845C543.189 111.845 541.692 111.704 540.156 111.421Z" fill="#002338"/>
<path d="M389.256 85.6812C388.795 85.2971 388.461 84.7987 388.257 84.1851C388.053 83.5707 387.937 82.7399 387.914 81.691V53.9902H377.326V57.8308H377.055C375.497 56.3725 373.751 55.2539 371.821 54.4735C369.889 53.6944 367.812 53.304 365.586 53.304C362.363 53.33 359.346 54.1793 356.532 55.8552C353.719 57.5299 351.463 59.9731 349.763 63.1816C348.062 66.3923 347.225 70.2093 347.249 74.6335C347.225 79.0582 348.062 82.861 349.763 86.0455C351.463 89.2288 353.707 91.6402 356.495 93.2761C359.283 94.9134 362.237 95.7312 365.356 95.7312C367.991 95.7312 370.446 95.1496 372.722 93.9863C374.997 92.8231 376.967 91.206 378.628 89.1343H378.974C379.383 90.5148 380.281 91.7419 381.66 92.8172C383.042 93.8901 384.972 94.863 387.454 95.7316L391.212 86.7562C390.368 86.4229 389.717 86.0644 389.256 85.6812ZM376.558 80.8279C375.688 82.6832 374.486 84.1334 372.952 85.1815C371.417 86.2309 369.678 86.7553 367.734 86.7553C365.791 86.7553 364.051 86.2309 362.519 85.1815C360.984 84.1334 359.795 82.6832 358.949 80.8279C358.105 78.9746 357.684 76.8583 357.684 74.4797C357.684 72.0508 358.112 69.9143 358.97 68.0728C359.826 66.2313 361.029 64.8189 362.575 63.8339C364.122 62.8501 365.894 62.358 367.89 62.358C369.782 62.3323 371.488 62.8055 373.009 63.7763C374.531 64.7491 375.721 66.1548 376.576 67.9963C377.434 69.8378 377.862 71.9987 377.862 74.4797C377.862 76.8583 377.427 78.9746 376.558 80.8279Z" fill="#002338"/>
<path d="M583.923 66.5226C582.895 65.9293 582.087 65.1144 581.502 64.0747C580.916 63.0372 580.622 61.8702 580.622 60.5775C580.622 59.2849 580.914 58.1179 581.497 57.0765C582.082 56.0398 582.886 55.2258 583.918 54.6404C584.947 54.0538 586.104 53.76 587.385 53.76C588.665 53.76 589.822 54.0538 590.846 54.6404C591.874 55.2258 592.677 56.0398 593.258 57.0765C593.839 58.1179 594.127 59.2845 594.127 60.5775C594.127 61.8706 593.838 63.0372 593.258 64.0747C592.677 65.1144 591.874 65.9293 590.846 66.5226C589.821 67.1147 588.665 67.411 587.385 67.411C586.104 67.411 584.949 67.1152 583.923 66.5226ZM590.4 65.8292C591.295 65.306 591.998 64.5862 592.511 63.668C593.018 62.7489 593.274 61.7185 593.274 60.5775C593.274 59.4282 593.018 58.3973 592.511 57.4821C591.998 56.5655 591.298 55.8499 590.402 55.3338C589.506 54.8169 588.501 54.5585 587.384 54.5585C586.268 54.5585 585.259 54.8169 584.359 55.3338C583.464 55.8499 582.761 56.5655 582.253 57.4821C581.745 58.3978 581.492 59.4282 581.492 60.5775C581.492 61.7185 581.746 62.7489 582.253 63.668C582.761 64.5858 583.464 65.306 584.359 65.8292C585.259 66.3524 586.268 66.613 587.384 66.613C588.496 66.6134 589.5 66.3524 590.4 65.8292ZM585.079 56.9332H585.605V56.9147H587.566C588.078 56.9147 588.527 56.9992 588.912 57.1673C589.3 57.3388 589.601 57.5833 589.817 57.9027C590.029 58.2234 590.137 58.6007 590.137 59.0344C590.137 59.5727 589.982 60.0405 589.667 60.4363C589.352 60.8335 588.923 61.1024 588.379 61.2482L590.428 64.2933H589.432L587.464 61.3566H586.005V64.2933H585.079V56.9332ZM587.566 60.5586C587.913 60.5586 588.217 60.4952 588.475 60.3682C588.729 60.2413 588.928 60.0695 589.065 59.8522C589.198 59.6349 589.267 59.3916 589.267 59.1248C589.267 58.6852 589.118 58.3398 588.818 58.0897C588.52 57.838 588.101 57.7123 587.566 57.7123H586.005V60.5586H587.566Z" fill="#002338"/>
<defs>
<radialGradient id="paint0_radial_1009_8" cx="0" cy="0" r="1" gradientUnits="userSpaceOnUse" gradientTransform="translate(59.4024 104.356) scale(172.627 172.627)">
<stop stop-color="#4E7EFF"/>
<stop offset="0.0085" stop-color="#4F83FE"/>
<stop offset="0.0816" stop-color="#58A9F7"/>
<stop offset="0.1578" stop-color="#60C8F1"/>
<stop offset="0.2369" stop-color="#66E0EC"/>
<stop offset="0.3201" stop-color="#6AF2E9"/>
<stop offset="0.4101" stop-color="#6CFCE7"/>
<stop offset="0.5191" stop-color="#6DFFE6"/>
<stop offset="0.5403" stop-color="#A2FFEF"/>
<stop offset="0.5629" stop-color="#D4FFF8"/>
<stop offset="0.58" stop-color="#F3FFFD"/>
<stop offset="0.5895" stop-color="white"/>
</radialGradient>
</defs>
</svg>
