<svg width="90" height="98" viewBox="0 0 90 98" fill="none" xmlns="http://www.w3.org/2000/svg">
<path d="M58.4776 53.9103C64.435 53.9103 70.1485 56.2769 74.361 60.4895C78.5736 64.702 80.9402 70.4155 80.9402 76.373V80.8655C80.9402 83.2485 79.9936 85.5339 78.3085 87.2189C76.6235 88.9039 74.3381 89.8506 71.9551 89.8506H9.05976C6.67678 89.8506 4.39139 88.9039 2.70637 87.2189C1.02134 85.5339 0.074707 83.2485 0.074707 80.8655L0.074707 76.373C0.074707 70.4155 2.4413 64.702 6.65386 60.4895C10.8664 56.2769 16.5799 53.9103 22.5373 53.9103H58.4776ZM76.0758 35.9402C77.2673 35.9402 77.4124 35.9396 78.7491 35.9402C79.6401 35.9396 79.1946 35.9396 80.0857 35.9402L80.9402 35.9402H85.4327C86.6242 35.9402 87.7669 36.4135 88.6094 37.2561C89.4519 38.0986 89.9253 39.2413 89.9253 40.4327C89.9253 41.6242 89.4519 42.7669 88.6094 43.6094C87.7669 44.452 86.6242 44.9253 85.4327 44.9253H80.9402L80.5198 44.9253C79.1946 44.9253 79.9651 44.9253 79.1946 44.9253C76.9669 44.8504 77.7128 44.8504 76.5214 44.8504C75.3299 44.8504 76.5214 44.8504 73.8481 44.8504C71.6204 44.9253 72.3305 44.9253 72.3305 44.9253L71.9551 44.9253H67.4626C66.2711 44.9253 65.1284 44.452 64.2859 43.6094C63.4434 42.7669 62.9701 41.6242 62.9701 40.4327C62.9701 39.2413 63.4434 38.0986 64.2859 37.2561C65.1284 36.4135 66.2711 35.9402 67.4626 35.9402H71.9551L72.5115 35.9396C72.957 35.9396 72.5115 35.9396 73.8481 35.9396C74.7392 35.9396 74.8843 35.9402 76.0758 35.9402ZM40.5075 0C46.4649 0 52.1784 2.36659 56.3909 6.57915C60.6035 10.7917 62.9701 16.5052 62.9701 22.4626C62.9701 28.4201 60.6035 34.1336 56.3909 38.3461C52.1784 42.5587 46.4649 44.9253 40.5075 44.9253C34.55 44.9253 28.8365 42.5587 24.624 38.3461C20.4114 34.1336 18.0448 28.4201 18.0448 22.4626C18.0448 16.5052 20.4114 10.7917 24.624 6.57915C28.8365 2.36659 34.55 0 40.5075 0Z" fill="#002338"/>
</svg>
