<svg width="92" height="92" viewBox="0 0 92 92" fill="none" xmlns="http://www.w3.org/2000/svg">
<g clip-path="url(#clip0_512_555)">
<path d="M55.4046 9.62843C54.9643 7.72832 53.867 6.04482 52.3063 4.87499C50.7456 3.70515 48.8218 3.12418 46.8745 3.23459C44.9272 3.345 43.0814 4.13969 41.663 5.47844C40.2445 6.81718 39.3445 8.61393 39.1218 10.5516C38.899 12.4893 39.3679 14.4434 40.4456 16.0691C41.5233 17.6948 43.1406 18.8875 45.0121 19.4369C46.8836 19.9863 48.889 19.857 50.6744 19.0717C52.4598 18.2865 53.9105 16.8959 54.7705 15.1453C60.0057 16.3374 64.8723 18.7852 68.9506 22.2774C73.0289 25.7697 76.1965 30.2016 78.1802 35.1909L83.2279 33.206C80.8913 27.2881 77.1288 22.0392 72.2748 17.9259C67.4208 13.8126 61.6257 10.9623 55.4046 9.62843ZM47.3796 14.2865C47.0101 14.2984 46.6419 14.2358 46.2971 14.1026C45.9522 13.9694 45.6376 13.7682 45.3721 13.511C45.1065 13.2539 44.8953 12.9459 44.7511 12.6055C44.6069 12.2651 44.5326 11.8992 44.5326 11.5295C44.5326 11.1598 44.6069 10.7938 44.7511 10.4534C44.8953 10.113 45.1065 9.80509 45.3721 9.5479C45.6376 9.29072 45.9522 9.08954 46.2971 8.95633C46.6419 8.82312 47.0101 8.76059 47.3796 8.77246C48.1112 8.77246 48.8128 9.06308 49.3301 9.58038C49.8474 10.0977 50.138 10.7993 50.138 11.5309C50.138 12.2625 49.8474 12.9641 49.3301 13.4814C48.8128 13.9987 48.1112 14.2865 47.3796 14.2865ZM35.2453 16.5785L33.2063 11.5337C27.2885 13.8703 22.0396 17.6328 17.9263 22.4868C13.813 27.3409 10.9627 33.1359 9.62879 39.357C7.72869 39.7973 6.04519 40.8946 4.87535 42.4553C3.70552 44.016 3.12455 45.9398 3.23496 47.8871C3.34536 49.8344 4.14006 51.6802 5.4788 53.0986C6.81755 54.5171 8.61429 55.4171 10.552 55.6398C12.4897 55.8626 14.4438 55.3937 16.0695 54.316C17.6951 53.2383 18.8879 51.621 19.4373 49.7495C19.9866 47.878 19.8573 45.8727 19.0721 44.0872C18.2869 42.3018 16.8963 40.8511 15.1457 39.9911C16.3427 34.7497 18.7984 29.8788 22.3005 25.7995C25.8026 21.7202 30.2455 18.5553 35.2453 16.5785ZM11.5284 50.1405C11.1662 50.1405 10.8075 50.0691 10.4728 49.9305C10.1381 49.7919 9.83405 49.5887 9.57791 49.3326C9.32176 49.0764 9.11858 48.7723 8.97995 48.4377C8.84133 48.103 8.76998 47.7443 8.76998 47.382C8.76998 47.0198 8.84133 46.6611 8.97995 46.3264C9.11858 45.9918 9.32176 45.6877 9.57791 45.4315C9.83405 45.1754 10.1381 44.9722 10.4728 44.8336C10.8075 44.695 11.1662 44.6236 11.5284 44.6236C12.26 44.6236 12.9616 44.9142 13.4789 45.4315C13.9962 45.9488 14.2869 46.6505 14.2869 47.382C14.2869 48.1136 13.9962 48.8153 13.4789 49.3326C12.9616 49.8499 12.26 50.1405 11.5284 50.1405ZM47.3796 74.9579C45.8412 74.9629 44.3346 75.3966 43.0291 76.2104C41.7235 77.0242 40.6706 78.1858 39.9887 79.5648C34.7527 78.3728 29.8853 75.9248 25.8064 72.432C21.7275 68.9392 18.5596 64.5065 16.5761 59.5163L11.5313 61.5553C13.8754 67.4831 17.6506 72.7385 22.5198 76.8525C27.389 80.9666 33.201 83.8113 39.437 85.1328C39.7952 86.651 40.5752 88.037 41.6871 89.1311C42.799 90.2251 44.1974 90.9827 45.7212 91.3163C47.245 91.6499 48.832 91.5461 50.2994 91.0167C51.7667 90.4874 53.0545 89.5541 54.0143 88.3245C54.9742 87.0949 55.5669 85.619 55.7242 84.0671C55.8816 82.5152 55.5971 80.9504 54.9035 79.5532C54.21 78.156 53.1357 76.9832 51.8045 76.1702C50.4732 75.3571 48.9393 74.9369 47.3796 74.9579ZM47.3796 85.9888C46.648 85.9888 45.9464 85.6982 45.4291 85.1809C44.9118 84.6636 44.6211 83.9619 44.6211 83.2304C44.6211 82.4988 44.9118 81.7972 45.4291 81.2799C45.9464 80.7625 46.648 80.4719 47.3796 80.4719C48.1112 80.4719 48.8128 80.7625 49.3301 81.2799C49.8474 81.7972 50.138 82.4988 50.138 83.2304C50.138 83.9619 49.8474 84.6636 49.3301 85.1809C48.8128 85.6982 48.1112 85.9888 47.3796 85.9888ZM91.5004 47.3792C91.5054 45.9027 91.1153 44.4517 90.3705 43.1768C89.6258 41.9019 88.5534 40.8494 87.2648 40.1287C85.9762 39.4079 84.5181 39.045 83.042 39.0777C81.5658 39.1103 80.1253 39.5374 78.8698 40.3145C77.6143 41.0916 76.5896 42.1904 75.902 43.497C75.2143 44.8036 74.8888 46.2705 74.9592 47.7453C75.0295 49.2201 75.4932 50.6493 76.3021 51.8845C77.111 53.1198 78.2357 54.1161 79.5595 54.7701C78.367 60.0056 75.9189 64.8724 72.4261 68.9508C68.9334 73.0291 64.5009 76.1966 59.511 78.1799L61.5528 83.2275C67.4807 80.8833 72.7361 77.1082 76.8501 72.239C80.9641 67.3697 83.8088 61.5578 85.1304 55.3218C86.9255 54.8973 88.5273 53.8851 89.6814 52.4461C90.8355 51.0071 91.4757 49.2237 91.5004 47.3792ZM83.225 50.1376C82.4935 50.1376 81.7918 49.847 81.2745 49.3297C80.7572 48.8124 80.4666 48.1108 80.4666 47.3792C80.4666 46.6476 80.7572 45.946 81.2745 45.4287C81.7918 44.9114 82.4935 44.6208 83.225 44.6208C83.9566 44.6208 84.6582 44.9114 85.1756 45.4287C85.6929 45.946 85.9835 46.6476 85.9835 47.3792C85.9835 48.1108 85.6929 48.8124 85.1756 49.3297C84.6582 49.847 83.9566 50.1376 83.225 50.1376Z" fill="#002338"/>
<path d="M53.5 49.5C56.1522 49.5 58.6957 50.5536 60.5711 52.4289C62.4464 54.3043 63.5 56.8478 63.5 59.5V61.5C63.5 62.5609 63.0786 63.5783 62.3284 64.3284C61.5783 65.0786 60.5609 65.5 59.5 65.5H31.5C30.4391 65.5 29.4217 65.0786 28.6716 64.3284C27.9214 63.5783 27.5 62.5609 27.5 61.5V59.5C27.5 56.8478 28.5536 54.3043 30.4289 52.4289C32.3043 50.5536 34.8478 49.5 37.5 49.5H53.5ZM61.5 37.5C62.0304 37.5 62.5391 37.7107 62.9142 38.0858C63.2893 38.4609 63.5 38.9696 63.5 39.5V41.5H65.5C66.0304 41.5 66.5391 41.7107 66.9142 42.0858C67.2893 42.4609 67.5 42.9696 67.5 43.5C67.5 44.0304 67.2893 44.5391 66.9142 44.9142C66.5391 45.2893 66.0304 45.5 65.5 45.5H63.5V47.5C63.5 48.0304 63.2893 48.5391 62.9142 48.9142C62.5391 49.2893 62.0304 49.5 61.5 49.5C60.9696 49.5 60.4609 49.2893 60.0858 48.9142C59.7107 48.5391 59.5 48.0304 59.5 47.5V45.5H57.5C56.9696 45.5 56.4609 45.2893 56.0858 44.9142C55.7107 44.5391 55.5 44.0304 55.5 43.5C55.5 42.9696 55.7107 42.4609 56.0858 42.0858C56.4609 41.7107 56.9696 41.5 57.5 41.5H59.5V39.5C59.5 38.9696 59.7107 38.4609 60.0858 38.0858C60.4609 37.7107 60.9696 37.5 61.5 37.5ZM45.5 25.5C48.1522 25.5 50.6957 26.5536 52.5711 28.4289C54.4464 30.3043 55.5 32.8478 55.5 35.5C55.5 38.1522 54.4464 40.6957 52.5711 42.5711C50.6957 44.4464 48.1522 45.5 45.5 45.5C42.8478 45.5 40.3043 44.4464 38.4289 42.5711C36.5536 40.6957 35.5 38.1522 35.5 35.5C35.5 32.8478 36.5536 30.3043 38.4289 28.4289C40.3043 26.5536 42.8478 25.5 45.5 25.5Z" fill="#002338"/>
</g>
<defs>
<clipPath id="clip0_512_555">
<rect width="91" height="91" fill="white" transform="translate(0.5 0.5)"/>
</clipPath>
</defs>
</svg>
