<svg width="100" height="100" viewBox="0 0 100 100" fill="none" xmlns="http://www.w3.org/2000/svg">
<path fill-rule="evenodd" clip-rule="evenodd" d="M43.5289 12.5C30.9919 12.5 20.7457 22.3334 20.0792 34.7084C13.2068 37.5 8.33374 44.2084 8.33374 52.0834C8.33374 62.4584 16.7056 70.8334 27.0767 70.8334H50.0937C51.1462 59.1531 60.9628 50 72.9169 50C79.4537 50 85.3509 52.7367 89.5259 57.1268C93.5163 48.4371 91.9289 37.835 84.7634 30.6666C80.1818 26.0834 74.1839 23.7916 68.1447 23.7916C66.6869 23.7916 65.2707 23.9166 63.8544 24.1666C59.7728 17.1666 52.2339 12.5 43.5705 12.5H43.5289ZM72.9169 54.1666C62.5617 54.1666 54.1669 62.5613 54.1669 72.9166C54.1669 83.2721 62.5617 91.6666 72.9169 91.6666C83.2724 91.6666 91.6669 83.2721 91.6669 72.9166C91.6669 62.5613 83.2724 54.1666 72.9169 54.1666ZM85.1753 66.425L68.7505 82.8498L60.6591 74.7582L64.3419 71.0754L68.7505 75.484L81.4925 62.7422L85.1753 66.425Z" fill="#34A853"/>
</svg>
