<svg width="92" height="92" viewBox="0 0 92 92" fill="none" xmlns="http://www.w3.org/2000/svg">
<path d="M80.5 46C80.5 39.1766 78.4766 32.5063 74.6857 26.8328C70.8948 21.1593 65.5066 16.7374 59.2026 14.1262C52.8985 11.5149 45.9617 10.8317 39.2694 12.1629C32.5771 13.4941 26.4297 16.7799 21.6048 21.6048C16.7799 26.4297 13.4941 32.5771 12.1629 39.2694C10.8317 45.9617 11.5149 52.8985 14.1262 59.2026C16.7374 65.5066 21.1593 70.8948 26.8328 74.6857C32.5063 78.4766 39.1766 80.5 46 80.5M13.8 34.5H78.2M13.8 57.5H44.0833" stroke="#002338" stroke-width="7.66667" stroke-linecap="round" stroke-linejoin="round"/>
<path d="M44.0817 11.5C37.6239 21.8485 34.2002 33.8018 34.2002 46C34.2002 58.1982 37.6239 70.1515 44.0817 80.5M47.9151 11.5C54.1116 21.4286 57.5199 32.8427 57.7821 44.5433M77.4317 77.4333L84.3317 84.3333M57.4984 69C57.4984 72.05 58.71 74.9751 60.8667 77.1317C63.0233 79.2884 65.9484 80.5 68.9984 80.5C72.0484 80.5 74.9735 79.2884 77.1301 77.1317C79.2868 74.9751 80.4984 72.05 80.4984 69C80.4984 65.95 79.2868 63.0249 77.1301 60.8683C74.9735 58.7116 72.0484 57.5 68.9984 57.5C65.9484 57.5 63.0233 58.7116 60.8667 60.8683C58.71 63.0249 57.4984 65.95 57.4984 69Z" stroke="#002338" stroke-width="7.66667" stroke-linecap="round" stroke-linejoin="round"/>
</svg>
