<svg width="100" height="100" viewBox="0 0 100 100" fill="none" xmlns="http://www.w3.org/2000/svg">
<path fill-rule="evenodd" clip-rule="evenodd" d="M27.9042 27.9045C32.1801 23.6283 37.6049 20.6846 43.5207 19.4305C49.4365 18.1763 55.589 18.6655 61.2323 20.8387C66.8756 23.0119 71.7671 26.7758 75.3136 31.674C78.8601 36.5721 80.9092 42.394 81.2125 48.4336C85.1356 49.4503 88.5541 51.8609 90.8291 55.2148C93.104 58.5686 94.0798 62.6362 93.5738 66.6571C93.0679 70.6781 91.1149 74.3771 88.08 77.0629C85.0451 79.7486 81.136 81.2372 77.0833 81.2503H27.0833C22.1667 81.2533 17.4075 79.5173 13.6475 76.3495C9.88743 73.1817 7.36893 68.7861 6.53744 63.9403C5.70595 59.0945 6.61506 54.1108 9.10395 49.8707C11.5929 45.6306 15.5011 42.4074 20.1375 40.7711C21.6412 35.9143 24.3072 31.4977 27.9042 27.9045ZM50 54.167C48.8949 54.167 47.8351 53.728 47.0537 52.9466C46.2723 52.1652 45.8333 51.1054 45.8333 50.0003V37.5003C45.8333 36.3952 46.2723 35.3354 47.0537 34.554C47.8351 33.7726 48.8949 33.3336 50 33.3336C51.1051 33.3336 52.1649 33.7726 52.9463 34.554C53.7277 35.3354 54.1667 36.3952 54.1667 37.5003V50.0003C54.1667 51.1054 53.7277 52.1652 52.9463 52.9466C52.1649 53.728 51.1051 54.167 50 54.167ZM43.75 64.5836C43.75 62.926 44.4085 61.3363 45.5806 60.1642C46.7527 58.9921 48.3424 58.3336 50 58.3336C51.6576 58.3336 53.2473 58.9921 54.4194 60.1642C55.5915 61.3363 56.25 62.926 56.25 64.5836C56.25 66.2412 55.5915 67.831 54.4194 69.0031C53.2473 70.1752 51.6576 70.8336 50 70.8336C48.3424 70.8336 46.7527 70.1752 45.5806 69.0031C44.4085 67.831 43.75 66.2412 43.75 64.5836Z" fill="#FFC045"/>
</svg>
